<svg width="33" height="33" viewBox="0 0 33 33" fill="none" xmlns="http://www.w3.org/2000/svg">
<path d="M28.9423 10.435C30.3023 10.9083 31.25 12.315 31.25 13.93V21.0733C31.25 22.9667 29.9469 24.5733 28.2038 24.7283C27.6808 24.7733 27.1577 24.815 26.6346 24.8483V30L22.0192 25C19.9362 25 17.8746 24.9083 15.8346 24.7283C15.3905 24.6894 14.9585 24.5522 14.5654 24.325M28.9423 10.435C28.7046 10.3521 28.4589 10.299 28.21 10.2767C24.0899 9.90614 19.9486 9.90614 15.8285 10.2767C14.0885 10.4333 12.7885 12.0383 12.7885 13.93V21.0733C12.7885 22.4683 13.4962 23.7067 14.5654 24.325M28.9423 10.435V7.31167C28.9423 4.61 27.17 2.26834 24.6962 1.92C21.5128 1.47299 18.3061 1.24919 15.0962 1.25C11.8423 1.25 8.63769 1.47834 5.49615 1.92C3.02231 2.26834 1.25 4.61 1.25 7.31167V17.6883C1.25 20.39 3.02231 22.7317 5.49615 23.08C6.38385 23.205 7.27615 23.3133 8.17308 23.4033V31.25L14.5654 24.325" stroke="#FEFAEF" stroke-width="2.5" stroke-linecap="round" stroke-linejoin="round"/>
</svg>
