<svg width="39" height="40" viewBox="0 0 39 40" fill="none" xmlns="http://www.w3.org/2000/svg">
<g clip-path="url(#clip0_82_281)">
<path d="M19.5 9.16666C21.0084 9.16666 22.4551 9.78124 23.5217 10.8752C24.5883 11.9692 25.1875 13.4529 25.1875 15C25.1875 16.5471 24.5883 18.0308 23.5217 19.1248C22.4551 20.2187 21.0084 20.8333 19.5 20.8333C17.9916 20.8333 16.5449 20.2187 15.4783 19.1248C14.4117 18.0308 13.8125 16.5471 13.8125 15C13.8125 13.4529 14.4117 11.9692 15.4783 10.8752C16.5449 9.78124 17.9916 9.16666 19.5 9.16666ZM8.125 13.3333C9.035 13.3333 9.88 13.5833 10.6112 14.0333C10.3675 16.4167 11.05 18.7833 12.4475 20.6333C11.635 22.2333 10.01 23.3333 8.125 23.3333C6.83207 23.3333 5.59209 22.8065 4.67785 21.8689C3.76361 20.9312 3.25 19.6594 3.25 18.3333C3.25 17.0072 3.76361 15.7355 4.67785 14.7978C5.59209 13.8601 6.83207 13.3333 8.125 13.3333ZM30.875 13.3333C32.1679 13.3333 33.4079 13.8601 34.3221 14.7978C35.2364 15.7355 35.75 17.0072 35.75 18.3333C35.75 19.6594 35.2364 20.9312 34.3221 21.8689C33.4079 22.8065 32.1679 23.3333 30.875 23.3333C28.99 23.3333 27.365 22.2333 26.5525 20.6333C27.95 18.7833 28.6325 16.4167 28.3887 14.0333C29.12 13.5833 29.965 13.3333 30.875 13.3333ZM8.9375 30.4167C8.9375 26.9667 13.6663 24.1667 19.5 24.1667C25.3337 24.1667 30.0625 26.9667 30.0625 30.4167V33.3333H8.9375V30.4167ZM0 33.3333V30.8333C0 28.5167 3.07125 26.5667 7.23125 26C6.2725 27.1333 5.6875 28.7 5.6875 30.4167V33.3333H0ZM39 33.3333H33.3125V30.4167C33.3125 28.7 32.7275 27.1333 31.7687 26C35.9287 26.5667 39 28.5167 39 30.8333V33.3333Z" fill="#001E3A"/>
</g>
<defs>
<clipPath id="clip0_82_281">
<rect width="39" height="40" fill="white"/>
</clipPath>
</defs>
</svg>
