<svg width="60" height="59" viewBox="0 0 60 59" fill="none" xmlns="http://www.w3.org/2000/svg">
<path d="M59 28.8532C58.5524 33.6961 56.7349 38.3114 53.7601 42.159C50.7852 46.0067 46.7761 48.9275 42.2018 50.5797C37.6276 52.232 32.6773 52.5474 27.9304 51.4889C23.1834 50.4304 18.8361 48.042 15.3971 44.6029C11.958 41.1639 9.56954 36.8165 8.51109 32.0696C7.45263 27.3226 7.76798 22.3724 9.42024 17.7981C11.0725 13.2239 13.9933 9.21476 17.8409 6.23992C21.6886 3.26507 26.3038 1.44755 31.1467 1C28.3114 4.83592 26.947 9.5621 27.3017 14.319C27.6564 19.0758 29.7067 23.5474 33.0797 26.9203C36.4526 30.2932 40.9242 32.3435 45.681 32.6983C50.4379 33.053 55.1641 31.6886 59 28.8532Z" fill="white" stroke="white" stroke-width="2" stroke-linecap="round" stroke-linejoin="round"/>
<path d="M30.9096 39.8676H28.6936C28.0355 37.3191 26.6759 35.0063 24.7691 33.192C22.8623 31.3776 20.4849 30.1345 17.9069 29.6039C15.3289 29.0732 12.6537 29.2763 10.1854 30.1901C7.71707 31.1039 5.55453 32.6917 3.94352 34.7731C2.3325 36.8545 1.33761 39.3461 1.07189 41.9646C0.806173 44.5832 1.28028 47.2239 2.44034 49.5865C3.6004 51.9491 5.39989 53.9389 7.63435 55.3299C9.86881 56.7209 12.4486 57.4572 15.0807 57.4553H30.9096C33.2419 57.4553 35.4786 56.5288 37.1278 54.8796C38.777 53.2305 39.7035 50.9937 39.7035 48.6614C39.7035 46.3291 38.777 44.0924 37.1278 42.4432C35.4786 40.7941 33.2419 39.8676 30.9096 39.8676Z" fill="#4D8EA2" stroke="#4D8EA2" stroke-width="2" stroke-linecap="round" stroke-linejoin="round"/>
</svg>
