<svg width="341" height="81" viewBox="0 0 341 81" fill="none" xmlns="http://www.w3.org/2000/svg">
<path d="M71.0001 43.7615C70.4599 49.8056 68.2663 55.5655 64.676 60.3675C61.0857 65.1694 56.2471 68.8147 50.7264 70.8767C45.2058 72.9388 39.2314 73.3323 33.5023 72.0113C27.7732 70.6904 22.5264 67.7095 18.3759 63.4175C14.2253 59.1255 11.3426 53.6999 10.0652 47.7756C8.78774 41.8513 9.16834 35.6733 11.1624 29.9645C13.1565 24.2557 16.6817 19.2522 21.3254 15.5395C25.969 11.8269 31.5392 9.55855 37.3841 9C33.9621 13.7873 32.3154 19.6857 32.7435 25.6224C33.1717 31.559 35.6461 37.1396 39.7169 41.3492C43.7877 45.5587 49.1844 48.1175 54.9255 48.5602C60.6665 49.0029 66.3705 47.3001 71.0001 43.7615Z" fill="#001E3A" stroke="#001E3A" stroke-width="2" stroke-linecap="round" stroke-linejoin="round"/>
<path d="M37.0978 57.5077H34.4233C33.6291 54.3272 31.9882 51.4407 29.6869 49.1764C27.3856 46.9121 24.5162 45.3606 21.4048 44.6984C18.2935 44.0361 15.0648 44.2896 12.0858 45.43C9.10681 46.5704 6.49685 48.552 4.55252 51.1497C2.6082 53.7473 1.40746 56.8568 1.08677 60.1249C0.766071 63.393 1.33827 66.6885 2.73834 69.6371C4.13841 72.5857 6.31022 75.0691 9.00697 76.8051C11.7037 78.5411 14.8173 79.46 17.9939 79.4576H37.0978C39.9126 79.4576 42.6121 78.3013 44.6025 76.2431C46.5929 74.1849 47.7111 71.3934 47.7111 68.4826C47.7111 65.5719 46.5929 62.7804 44.6025 60.7222C42.6121 58.664 39.9126 57.5077 37.0978 57.5077Z" fill="#BBD7EC" stroke="#BBD7EC" stroke-width="2" stroke-linecap="round" stroke-linejoin="round"/>
<path d="M106.54 59.34H120.34V66H98.14V24.12H106.54V59.34ZM157.059 32.76V66H148.599V61.8C147.519 63.24 146.099 64.38 144.339 65.22C142.619 66.02 140.739 66.42 138.699 66.42C136.099 66.42 133.799 65.88 131.799 64.8C129.799 63.68 128.219 62.06 127.059 59.94C125.939 57.78 125.379 55.22 125.379 52.26V32.76H133.779V51.06C133.779 53.7 134.439 55.74 135.759 57.18C137.079 58.58 138.879 59.28 141.159 59.28C143.479 59.28 145.299 58.58 146.619 57.18C147.939 55.74 148.599 53.7 148.599 51.06V32.76H157.059ZM183.767 32.28C187.727 32.28 190.927 33.54 193.367 36.06C195.807 38.54 197.027 42.02 197.027 46.5V66H188.627V47.64C188.627 45 187.967 42.98 186.647 41.58C185.327 40.14 183.527 39.42 181.247 39.42C178.927 39.42 177.087 40.14 175.727 41.58C174.407 42.98 173.747 45 173.747 47.64V66H165.347V32.76H173.747V36.9C174.867 35.46 176.287 34.34 178.007 33.54C179.767 32.7 181.687 32.28 183.767 32.28ZM202.855 49.26C202.855 45.9 203.515 42.92 204.835 40.32C206.195 37.72 208.015 35.72 210.295 34.32C212.615 32.92 215.195 32.22 218.035 32.22C220.515 32.22 222.675 32.72 224.515 33.72C226.395 34.72 227.895 35.98 229.015 37.5V32.76H237.475V66H229.015V61.14C227.935 62.7 226.435 64 224.515 65.04C222.635 66.04 220.455 66.54 217.975 66.54C215.175 66.54 212.615 65.82 210.295 64.38C208.015 62.94 206.195 60.92 204.835 58.32C203.515 55.68 202.855 52.66 202.855 49.26ZM229.015 49.38C229.015 47.34 228.615 45.6 227.815 44.16C227.015 42.68 225.935 41.56 224.575 40.8C223.215 40 221.755 39.6 220.195 39.6C218.635 39.6 217.195 39.98 215.875 40.74C214.555 41.5 213.475 42.62 212.635 44.1C211.835 45.54 211.435 47.26 211.435 49.26C211.435 51.26 211.835 53.02 212.635 54.54C213.475 56.02 214.555 57.16 215.875 57.96C217.235 58.76 218.675 59.16 220.195 59.16C221.755 59.16 223.215 58.78 224.575 58.02C225.935 57.22 227.015 56.1 227.815 54.66C228.615 53.18 229.015 51.42 229.015 49.38Z" fill="#001E3A"/>
<path d="M251.54 37.92C252.62 36.16 254.02 34.78 255.74 33.78C257.5 32.78 259.5 32.28 261.74 32.28V41.1H259.52C256.88 41.1 254.88 41.72 253.52 42.96C252.2 44.2 251.54 46.36 251.54 49.44V66H243.14V32.76H251.54V37.92ZM271.658 28.8C270.178 28.8 268.938 28.34 267.938 27.42C266.978 26.46 266.498 25.28 266.498 23.88C266.498 22.48 266.978 21.32 267.938 20.4C268.938 19.44 270.178 18.96 271.658 18.96C273.138 18.96 274.358 19.44 275.318 20.4C276.318 21.32 276.818 22.48 276.818 23.88C276.818 25.28 276.318 26.46 275.318 27.42C274.358 28.34 273.138 28.8 271.658 28.8ZM275.798 32.76V66H267.398V32.76H275.798ZM296.817 66.54C294.097 66.54 291.657 66.06 289.497 65.1C287.337 64.1 285.617 62.76 284.337 61.08C283.097 59.4 282.417 57.54 282.297 55.5H290.757C290.917 56.78 291.537 57.84 292.617 58.68C293.737 59.52 295.117 59.94 296.757 59.94C298.357 59.94 299.597 59.62 300.477 58.98C301.397 58.34 301.857 57.52 301.857 56.52C301.857 55.44 301.297 54.64 300.177 54.12C299.097 53.56 297.357 52.96 294.957 52.32C292.477 51.72 290.437 51.1 288.837 50.46C287.277 49.82 285.917 48.84 284.757 47.52C283.637 46.2 283.077 44.42 283.077 42.18C283.077 40.34 283.597 38.66 284.637 37.14C285.717 35.62 287.237 34.42 289.197 33.54C291.197 32.66 293.537 32.22 296.217 32.22C300.177 32.22 303.337 33.22 305.697 35.22C308.057 37.18 309.357 39.84 309.597 43.2H301.557C301.437 41.88 300.877 40.84 299.877 40.08C298.917 39.28 297.617 38.88 295.977 38.88C294.457 38.88 293.277 39.16 292.437 39.72C291.637 40.28 291.237 41.06 291.237 42.06C291.237 43.18 291.797 44.04 292.917 44.64C294.037 45.2 295.777 45.78 298.137 46.38C300.537 46.98 302.517 47.6 304.077 48.24C305.637 48.88 306.977 49.88 308.097 51.24C309.257 52.56 309.857 54.32 309.897 56.52C309.897 58.44 309.357 60.16 308.277 61.68C307.237 63.2 305.717 64.4 303.717 65.28C301.757 66.12 299.457 66.54 296.817 66.54Z" fill="#4D8EA2"/>
</svg>
