<svg width="190" height="59" viewBox="0 0 190 59" fill="none" xmlns="http://www.w3.org/2000/svg">
<path d="M59.0001 28.8532C58.5526 33.6961 56.735 38.3114 53.7602 42.159C50.7853 46.0067 46.7762 48.9275 42.202 50.5797C37.6277 52.232 32.6775 52.5474 27.9305 51.4889C23.1836 50.4304 18.8362 48.042 15.3972 44.6029C11.9582 41.1639 9.56967 36.8165 8.51121 32.0696C7.45275 27.3226 7.7681 22.3724 9.42036 17.7981C11.0726 13.2239 13.9934 9.21476 17.8411 6.23992C21.6887 3.26507 26.304 1.44755 31.1469 1C28.3115 4.83592 26.9471 9.5621 27.3018 14.319C27.6566 19.0758 29.7069 23.5474 33.0798 26.9203C36.4527 30.2932 40.9243 32.3435 45.6811 32.6983C50.438 33.053 55.1642 31.6886 59.0001 28.8532Z" fill="white" stroke="white" stroke-width="2" stroke-linecap="round" stroke-linejoin="round"/>
<path d="M30.9096 39.8676H28.6936C28.0355 37.3191 26.6759 35.0063 24.7691 33.192C22.8623 31.3776 20.4849 30.1345 17.9069 29.6039C15.3289 29.0732 12.6537 29.2763 10.1854 30.1901C7.71707 31.1039 5.55453 32.6917 3.94352 34.7731C2.3325 36.8545 1.33761 39.3461 1.07189 41.9646C0.806173 44.5832 1.28028 47.2239 2.44034 49.5865C3.6004 51.9491 5.39989 53.9389 7.63435 55.3299C9.86881 56.7209 12.4486 57.4572 15.0807 57.4553H30.9096C33.2419 57.4553 35.4786 56.5288 37.1278 54.8796C38.777 53.2305 39.7035 50.9937 39.7035 48.6614C39.7035 46.3291 38.777 44.0924 37.1278 42.4432C35.4786 40.7941 33.2419 39.8676 30.9096 39.8676Z" fill="#001E3A" stroke="#001E3A" stroke-width="2" stroke-linecap="round" stroke-linejoin="round"/>
<path d="M77.688 36.448H85.048V40H73.208V17.664H77.688V36.448ZM104.632 22.272V40H100.12V37.76C99.5435 38.528 98.7862 39.136 97.8475 39.584C96.9302 40.0107 95.9275 40.224 94.8395 40.224C93.4528 40.224 92.2262 39.936 91.1595 39.36C90.0928 38.7627 89.2502 37.8987 88.6315 36.768C88.0342 35.616 87.7355 34.2507 87.7355 32.672V22.272H92.2155V32.032C92.2155 33.44 92.5675 34.528 93.2715 35.296C93.9755 36.0427 94.9355 36.416 96.1515 36.416C97.3888 36.416 98.3595 36.0427 99.0635 35.296C99.7675 34.528 100.12 33.44 100.12 32.032V22.272H104.632ZM118.876 22.016C120.988 22.016 122.694 22.688 123.996 24.032C125.297 25.3547 125.948 27.2107 125.948 29.6V40H121.468V30.208C121.468 28.8 121.116 27.7227 120.412 26.976C119.708 26.208 118.748 25.824 117.532 25.824C116.294 25.824 115.313 26.208 114.588 26.976C113.884 27.7227 113.532 28.8 113.532 30.208V40H109.052V22.272H113.532V24.48C114.129 23.712 114.886 23.1147 115.804 22.688C116.742 22.24 117.766 22.016 118.876 22.016ZM129.056 31.072C129.056 29.28 129.408 27.6907 130.112 26.304C130.837 24.9173 131.808 23.8507 133.024 23.104C134.261 22.3573 135.637 21.984 137.152 21.984C138.475 21.984 139.627 22.2507 140.608 22.784C141.611 23.3173 142.411 23.9893 143.008 24.8V22.272H147.52V40H143.008V37.408C142.432 38.24 141.632 38.9333 140.608 39.488C139.605 40.0213 138.443 40.288 137.12 40.288C135.627 40.288 134.261 39.904 133.024 39.136C131.808 38.368 130.837 37.2907 130.112 35.904C129.408 34.496 129.056 32.8853 129.056 31.072ZM143.008 31.136C143.008 30.048 142.795 29.12 142.368 28.352C141.941 27.5627 141.365 26.9653 140.64 26.56C139.915 26.1333 139.136 25.92 138.304 25.92C137.472 25.92 136.704 26.1227 136 26.528C135.296 26.9333 134.72 27.5307 134.272 28.32C133.845 29.088 133.632 30.0053 133.632 31.072C133.632 32.1387 133.845 33.0773 134.272 33.888C134.72 34.6773 135.296 35.2853 136 35.712C136.725 36.1387 137.493 36.352 138.304 36.352C139.136 36.352 139.915 36.1493 140.64 35.744C141.365 35.3173 141.941 34.72 142.368 33.952C142.795 33.1627 143.008 32.224 143.008 31.136Z" fill="#FEFAEF"/>
<path d="M156.688 25.024C157.264 24.0853 158.011 23.3493 158.928 22.816C159.867 22.2827 160.933 22.016 162.128 22.016V26.72H160.944C159.536 26.72 158.469 27.0507 157.744 27.712C157.04 28.3733 156.688 29.5253 156.688 31.168V40H152.208V22.272H156.688V25.024ZM167.418 20.16C166.628 20.16 165.967 19.9147 165.434 19.424C164.922 18.912 164.666 18.2827 164.666 17.536C164.666 16.7893 164.922 16.1707 165.434 15.68C165.967 15.168 166.628 14.912 167.418 14.912C168.207 14.912 168.858 15.168 169.37 15.68C169.903 16.1707 170.17 16.7893 170.17 17.536C170.17 18.2827 169.903 18.912 169.37 19.424C168.858 19.9147 168.207 20.16 167.418 20.16ZM169.626 22.272V40H165.146V22.272H169.626ZM180.836 40.288C179.385 40.288 178.084 40.032 176.932 39.52C175.78 38.9867 174.862 38.272 174.18 37.376C173.518 36.48 173.156 35.488 173.092 34.4H177.604C177.689 35.0827 178.02 35.648 178.596 36.096C179.193 36.544 179.929 36.768 180.804 36.768C181.657 36.768 182.318 36.5973 182.788 36.256C183.278 35.9147 183.524 35.4773 183.524 34.944C183.524 34.368 183.225 33.9413 182.628 33.664C182.052 33.3653 181.124 33.0453 179.844 32.704C178.521 32.384 177.433 32.0533 176.58 31.712C175.748 31.3707 175.022 30.848 174.404 30.144C173.806 29.44 173.508 28.4907 173.508 27.296C173.508 26.3147 173.785 25.4187 174.34 24.608C174.916 23.7973 175.726 23.1573 176.772 22.688C177.838 22.2187 179.086 21.984 180.516 21.984C182.628 21.984 184.313 22.5173 185.572 23.584C186.83 24.6293 187.524 26.048 187.652 27.84H183.364C183.3 27.136 183.001 26.5813 182.468 26.176C181.956 25.7493 181.262 25.536 180.388 25.536C179.577 25.536 178.948 25.6853 178.5 25.984C178.073 26.2827 177.86 26.6987 177.86 27.232C177.86 27.8293 178.158 28.288 178.756 28.608C179.353 28.9067 180.281 29.216 181.54 29.536C182.82 29.856 183.876 30.1867 184.708 30.528C185.54 30.8693 186.254 31.4027 186.852 32.128C187.47 32.832 187.79 33.7707 187.812 34.944C187.812 35.968 187.524 36.8853 186.948 37.696C186.393 38.5067 185.582 39.1467 184.516 39.616C183.47 40.064 182.244 40.288 180.836 40.288Z" fill="#001E3A"/>
</svg>
